<svg xmlns="http://www.w3.org/2000/svg" width="12.215" height="12.215" viewBox="0 0 12.215 12.215">
  <path id="copyright-light" d="M14.108,8a6.108,6.108,0,1,0,6.108,6.108A6.108,6.108,0,0,0,14.108,8Zm5.32,6.108a5.32,5.32,0,1,1-5.32-5.32A5.319,5.319,0,0,1,19.427,14.108Zm-2.747,2.5a3.592,3.592,0,0,1-2.465.96A3.342,3.342,0,0,1,10.853,14.1a3.3,3.3,0,0,1,3.335-3.389,3.5,3.5,0,0,1,2.316.8.3.3,0,0,1,.042.394l-.216.3a.3.3,0,0,1-.424.057,2.768,2.768,0,0,0-1.7-.583,2.3,2.3,0,0,0-2.319,2.417A2.377,2.377,0,0,0,14.224,16.6a2.764,2.764,0,0,0,1.819-.71.3.3,0,0,1,.429.031l.232.284A.294.294,0,0,1,16.681,16.6Z" transform="translate(-8 -8)" fill="#fafafa"/>
</svg>
