<svg xmlns="http://www.w3.org/2000/svg" width="21.032" height="15.774" viewBox="0 0 21.032 15.774">
  <g id="envelope-duotone" transform="translate(0 -64)">
    <path id="Path_1" data-name="Path 1" d="M10.535,75.83H10.5c-1.236,0-2.482-.962-3.391-1.664C6.958,74.052,1.017,69.7,0,68.9v8.9a1.972,1.972,0,0,0,1.972,1.972H19.06A1.972,1.972,0,0,0,21.032,77.8V68.9c-1,.787-6.959,5.149-7.106,5.263C13.017,74.868,11.772,75.83,10.535,75.83ZM19.06,64H1.972A1.972,1.972,0,0,0,0,65.972v.78a.989.989,0,0,0,.378.776c1.257.982,1.672,1.331,7.123,5.287.69.5,2.062,1.717,3.015,1.7.953.016,2.325-1.2,3.015-1.7,5.451-3.956,5.866-4.3,7.123-5.287a.983.983,0,0,0,.378-.776v-.78A1.972,1.972,0,0,0,19.06,64Z" transform="translate(0)" fill="#b1b9bb" opacity="0.4"/>
    <path id="Path_2" data-name="Path 2" d="M21.032,131v2.151c-1,.787-6.959,5.149-7.106,5.263-.909.7-2.154,1.664-3.39,1.664H10.5c-1.236,0-2.482-.962-3.391-1.664C6.958,138.3,1.017,133.945,0,133.15V131a.989.989,0,0,0,.378.776c1.257.982,1.672,1.331,7.123,5.287.686.5,2.044,1.7,3,1.7h.039c.952,0,2.31-1.2,3-1.7,5.451-3.956,5.866-4.3,7.123-5.287A.983.983,0,0,0,21.032,131Z" transform="translate(0 -64.248)" fill="#b1b9bb"/>
  </g>
</svg>
