<svg xmlns="http://www.w3.org/2000/svg" width="35.367" height="35.367" viewBox="0 0 35.367 35.367">
  <path id="instagram-square-brands" d="M17.684,45.473A4.211,4.211,0,1,0,21.9,49.684a4.211,4.211,0,0,0-4.212-4.211Zm9.845-3.237a4.263,4.263,0,0,0-2.4-2.4c-1.658-.654-5.605-.508-7.444-.508s-5.783-.152-7.445.508a4.263,4.263,0,0,0-2.4,2.4c-.654,1.658-.508,5.609-.508,7.447s-.146,5.784.511,7.448a4.263,4.263,0,0,0,2.4,2.4c1.658.654,5.605.508,7.445.508s5.782.152,7.444-.508a4.263,4.263,0,0,0,2.4-2.4c.659-1.658.508-5.609.508-7.447s.152-5.783-.508-7.447ZM17.684,56.157a6.466,6.466,0,1,1,4.58-1.894,6.473,6.473,0,0,1-4.58,1.894Zm6.74-11.707a1.5,1.5,0,1,1,1.071-.441,1.511,1.511,0,0,1-1.071.441ZM31.578,32H3.789A3.789,3.789,0,0,0,0,35.789V63.578a3.789,3.789,0,0,0,3.789,3.789H31.578a3.789,3.789,0,0,0,3.789-3.789V35.789A3.789,3.789,0,0,0,31.578,32ZM30.226,54.894a7.511,7.511,0,0,1-2.041,5.289A7.515,7.515,0,0,1,22.9,62.224c-2.085.118-8.336.118-10.421,0a7.525,7.525,0,0,1-5.289-2.041,7.489,7.489,0,0,1-2.041-5.289c-.118-2.086-.118-8.337,0-10.421a7.487,7.487,0,0,1,2.041-5.289,7.529,7.529,0,0,1,5.289-2.035c2.085-.118,8.336-.118,10.421,0a7.516,7.516,0,0,1,5.289,2.041,7.516,7.516,0,0,1,2.041,5.293C30.344,46.561,30.344,52.807,30.226,54.894Z" transform="translate(0 -32)" fill="#fafafa"/>
</svg>
