<svg xmlns="http://www.w3.org/2000/svg" width="35.367" height="35.367" viewBox="0 0 35.367 35.367">
  <path id="twitter-square-brands" d="M31.578,32H3.789A3.79,3.79,0,0,0,0,35.789V63.578a3.79,3.79,0,0,0,3.789,3.789H31.578a3.79,3.79,0,0,0,3.789-3.789V35.789A3.79,3.79,0,0,0,31.578,32Zm-3.86,12.536c.016.221.016.45.016.671A14.631,14.631,0,0,1,13,59.938a14.663,14.663,0,0,1-7.95-2.321,10.908,10.908,0,0,0,1.247.063,10.381,10.381,0,0,0,6.426-2.21,5.184,5.184,0,0,1-4.839-3.592,5.58,5.58,0,0,0,2.337-.095A5.178,5.178,0,0,1,6.079,46.7v-.063a5.174,5.174,0,0,0,2.337.655,5.167,5.167,0,0,1-2.305-4.31,5.113,5.113,0,0,1,.7-2.613,14.7,14.7,0,0,0,10.673,5.416,5.189,5.189,0,0,1,8.834-4.729A10.146,10.146,0,0,0,29.6,39.808a5.164,5.164,0,0,1-2.274,2.85,10.3,10.3,0,0,0,2.984-.805A10.9,10.9,0,0,1,27.717,44.536Z" transform="translate(0 -32)" fill="#fafafa"/>
</svg>
