<svg xmlns="http://www.w3.org/2000/svg" width="35.367" height="35.367" viewBox="0 0 35.367 35.367">
  <path id="youtube-square-brands" d="M14.747,45.428,22.262,49.7,14.747,53.97Zm20.62-9.639V63.578a3.79,3.79,0,0,1-3.789,3.789H3.789A3.79,3.79,0,0,1,0,63.578V35.789A3.79,3.79,0,0,1,3.789,32H31.578A3.79,3.79,0,0,1,35.367,35.789ZM32.052,49.707a37.933,37.933,0,0,0-.6-6.963,3.6,3.6,0,0,0-2.542-2.558c-2.234-.608-11.226-.608-11.226-.608s-8.992,0-11.226.608a3.6,3.6,0,0,0-2.542,2.558,40.7,40.7,0,0,0,0,13.926,3.552,3.552,0,0,0,2.542,2.518c2.234.6,11.226.6,11.226.6s8.992,0,11.226-.608a3.552,3.552,0,0,0,2.542-2.518,37.817,37.817,0,0,0,.6-6.955Z" transform="translate(0 -32)" fill="#fafafa"/>
</svg>
